# xmcd
#
# Track frame offsets: 
#        150
#        18752
#        32257
#
# Disc length: 624 seconds
#
# Revision: 3
# Processed by: cddbd v1.5.2PL0 Copyright (c) Steve Scherf et al.
# Submitted via: ExactAudioCopy v0.99pb4
#
DISCID=10026e03
DTITLE=Shane MacGowan and The Popes - The Song With No Name
DYEAR=1994
DGENRE=Folk/Rock
TTITLE0=The Song With No Name
TTITLE1=Nancy Whiskey
TTITLE2=Cracklin' Rosie
EXTD=Label: ZTT Records\n4509-98786-2 | ZANG60CD
EXTT0=
EXTT1=
EXTT2=
PLAYORDER=
